<svg xmlns="http://www.w3.org/2000/svg" viewBox="0 0 32 32">
  <!-- Leaves -->
  <path d="M6 24 C4 20, 8 16, 12 18 C10 22, 8 25, 6 24 Z" fill="#16A34A" stroke="#14532D" stroke-width="0.8"/>
  <path d="M26 24 C28 20, 24 16, 20 18 C22 22, 24 25, 26 24 Z" fill="#16A34A" stroke="#14532D" stroke-width="0.8"/>
  
  <!-- Outer Petals (Deep Gold) -->
  <circle cx="16" cy="6" r="3.2" fill="#D97706" />
  <circle cx="16" cy="24" r="3.2" fill="#D97706" />
  <circle cx="7" cy="15" r="3.2" fill="#D97706" />
  <circle cx="25" cy="15" r="3.2" fill="#D97706" />
  <circle cx="9.5" cy="8.5" r="3.2" fill="#D97706" />
  <circle cx="22.5" cy="8.5" r="3.2" fill="#D97706" />
  <circle cx="9.5" cy="21.5" r="3.2" fill="#D97706" />
  <circle cx="22.5" cy="21.5" r="3.2" fill="#D97706" />

  <!-- Inner Petals (Bright Gold) -->
  <circle cx="16" cy="7" r="2.8" fill="#FBBF24" />
  <circle cx="16" cy="23" r="2.8" fill="#FBBF24" />
  <circle cx="8" cy="15" r="2.8" fill="#FBBF24" />
  <circle cx="24" cy="15" r="2.8" fill="#FBBF24" />
  <circle cx="10.5" cy="9.5" r="2.8" fill="#FBBF24" />
  <circle cx="21.5" cy="9.5" r="2.8" fill="#FBBF24" />
  <circle cx="10.5" cy="20.5" r="2.8" fill="#FBBF24" />
  <circle cx="21.5" cy="20.5" r="2.8" fill="#FBBF24" />
  
  <!-- Sunflower Center Disc -->
  <circle cx="16" cy="15" r="6.2" fill="#78350F" stroke="#451A03" stroke-width="1"/>
  
  <!-- Seed details -->
  <circle cx="14.5" cy="13.5" r="0.9" fill="#F59E0B" />
  <circle cx="17.5" cy="13.5" r="0.9" fill="#F59E0B" />
  <circle cx="16" cy="15.5" r="0.9" fill="#FDE047" />
  <circle cx="14" cy="16.5" r="0.8" fill="#D97706" />
  <circle cx="18" cy="16.5" r="0.8" fill="#D97706" />
</svg>